<svg xmlns="http://www.w3.org/2000/svg" xmlns:xlink="http://www.w3.org/1999/xlink" width="167.884" height="167.883" viewBox="0 0 167.884 167.883"><defs><style>.a{fill:url(#a);}.b{fill:url(#b);}</style><linearGradient id="a" x1="0.116" y1="0.822" x2="0.909" y2="0.029" gradientUnits="objectBoundingBox"><stop offset="0" stop-color="#662d91"/><stop offset="0.437" stop-color="#3873b3"/><stop offset="1" stop-color="#00c9dd"/></linearGradient><linearGradient id="b" x1="-0.155" y1="1.561" x2="1.431" y2="-0.138" xlink:href="#a"/></defs><g transform="translate(0.001 -0.5)"><path class="a" d="M3.3,145.953l28.072-5.1,5.058,25.294a2.8,2.8,0,0,0,2.2,2.2,2.758,2.758,0,0,0,.543.042,2.8,2.8,0,0,0,2.329-1.245l19.63-29.447,4.167,6.947a2.8,2.8,0,0,0,1.779,1.29,2.721,2.721,0,0,0,.635.07,2.8,2.8,0,0,0,1.54-.462l14.689-9.678,14.7,9.678a2.8,2.8,0,0,0,3.876-.8c.022-.033.042-.067.063-.1l4.169-6.95,19.632,29.448a2.8,2.8,0,0,0,2.327,1.246,2.8,2.8,0,0,0,2.742-2.25l5.093-25.515,28.288,2.582a2.8,2.8,0,0,0,2.58-4.34l-20.447-30.684,3.584-1.118a2.8,2.8,0,0,0,1.838-3.506c-.019-.06-.041-.12-.064-.179L146.036,87.2l12.8-11.905a2.8,2.8,0,0,0,.142-3.954q-.069-.073-.142-.142l-12.8-11.9,6.29-16.171a2.8,2.8,0,0,0-1.595-3.622c-.059-.023-.119-.044-.179-.063l-16.833-5.249-1.472-17.263a2.812,2.812,0,0,0-1.044-1.958,2.776,2.776,0,0,0-2.13-.585l-17.518,2.426L102.585,1.86A2.8,2.8,0,0,0,98.747.9c-.035.02-.068.042-.1.064l-14.7,9.678L69.241.962a2.8,2.8,0,0,0-3.876.8c-.022.033-.044.067-.064.1l-8.97,14.958L38.816,14.392A2.8,2.8,0,0,0,35.66,16.78c-.008.049-.013.1-.017.149L34.167,34.192,17.349,39.44a2.8,2.8,0,0,0-1.837,3.5c.019.061.04.122.063.181l6.288,16.169L9.044,71.2A2.8,2.8,0,0,0,8.9,75.156c.045.049.092.1.141.142l12.8,11.9-6.29,16.169a2.8,2.8,0,0,0,1.593,3.622c.06.023.12.045.181.063l3.713,1.157L.414,141.733a2.8,2.8,0,0,0,2.886,4.22Zm156.211-8.867L134.558,134.8a2.838,2.838,0,0,0-2.993,2.239L127.292,158.4l-17.348-26.022,1.618-2.7,17.516,2.426a2.8,2.8,0,0,0,3.156-2.386c.006-.05.013-.1.017-.149l1.474-17.265,7.681-2.394ZM15.06,73.249,27.05,62.1a2.8,2.8,0,0,0,.7-3.064L21.876,43.889l15.766-4.916A2.8,2.8,0,0,0,39.6,36.539l1.383-16.2,16.427,2.275a2.8,2.8,0,0,0,2.8-1.335L68.631,7.241,82.4,16.329a2.8,2.8,0,0,0,3.078,0L99.286,7.241l8.423,14.043a2.815,2.815,0,0,0,2.783,1.331l16.427-2.271,1.382,16.2a2.8,2.8,0,0,0,1.958,2.434l15.765,4.92-5.877,15.142a2.8,2.8,0,0,0,.7,3.064l11.972,11.147L140.833,84.4a2.8,2.8,0,0,0-.7,3.064l5.877,15.149-15.753,4.916a2.8,2.8,0,0,0-1.958,2.435l-1.382,16.2-16.426-2.265a2.82,2.82,0,0,0-2.783,1.335l-8.422,14.041-13.8-9.1a2.8,2.8,0,0,0-3.077,0L68.6,139.256l-8.422-14.042a2.8,2.8,0,0,0-2.4-1.36,2.608,2.608,0,0,0-.387.028l-16.427,2.272-1.382-16.2a2.8,2.8,0,0,0-1.958-2.434L21.858,102.6,27.752,87.46a2.8,2.8,0,0,0-.7-3.064Zm11.5,36.682,7.608,2.373,1.472,17.263a2.8,2.8,0,0,0,3.174,2.544l17.518-2.426,1.62,2.7L40.6,158.41l-4.282-21.366a2.8,2.8,0,0,0-3.243-2.2L8.468,139.316Zm0,0" transform="translate(0 0)"/><path class="b" d="M130.8,155.643h19.587a2.8,2.8,0,0,0,2.8-2.8h41.971a8.435,8.435,0,0,0,8.395-8.393,8.309,8.309,0,0,0-1.119-4.108,7.888,7.888,0,0,0,1.422-1.136,8.242,8.242,0,0,0,1.376-10.056,7.844,7.844,0,0,0,1.422-1.136,8.244,8.244,0,0,0,1.377-10.056,7.9,7.9,0,0,0,1.422-1.136,8.244,8.244,0,0,0,2.5-5.95,8.394,8.394,0,0,0-8.395-8.393H183.966V91.288A13.978,13.978,0,0,0,170,77.3h-.028a2.8,2.8,0,0,0-2.8,2.8v13.33l-5.036,10.051-9,7.2a2.78,2.78,0,0,0-2.749-2.605H130.8a2.8,2.8,0,0,0-2.8,2.8v41.971A2.8,2.8,0,0,0,130.8,155.643Zm35.326-48.179a2.833,2.833,0,0,0,.756-.935l5.6-11.192a2.8,2.8,0,0,0,.293-1.25V83.372a8.368,8.368,0,0,1,5.6,7.916v13.991a2.8,2.8,0,0,0,2.8,2.8h22.384a2.8,2.8,0,0,1,2.8,2.8,2.723,2.723,0,0,1-.857,1.992,2.673,2.673,0,0,1-1.942.806H192.358v5.6h8.395a2.8,2.8,0,0,1,2.8,2.8,2.727,2.727,0,0,1-.856,1.992,2.673,2.673,0,0,1-1.942.806H189.56v5.6h8.393a2.8,2.8,0,0,1,2.8,2.8,2.727,2.727,0,0,1-.856,1.992,2.678,2.678,0,0,1-1.943.806H186.762v5.6h8.395a2.8,2.8,0,0,1,2.8,2.8,2.727,2.727,0,0,1-.856,1.992,2.675,2.675,0,0,1-1.942.806H153.185V117.813ZM133.6,113.672h13.989v36.375H133.6Zm0,0" transform="translate(-86.032 -51.615)"/></g></svg>