<svg xmlns="http://www.w3.org/2000/svg" width="15.844" height="16.179" viewBox="0 0 15.844 16.179"><defs><style>.a{fill:#fff;}</style></defs><g transform="translate(-5.298)"><g transform="translate(7.665 8.862)"><g transform="translate(0)"><path class="a" d="M82.153,280.466a.237.237,0,0,0-.309.131.645.645,0,0,1-1.195,0,.237.237,0,1,0-.44.177,1.119,1.119,0,0,0,2.074,0A.237.237,0,0,0,82.153,280.466Z" transform="translate(-80.192 -280.448)"/></g></g><g transform="translate(7.392 7.576)"><path class="a" d="M71.794,239.767a.237.237,0,0,0-.237.237v.105a.237.237,0,1,0,.474,0V240A.237.237,0,0,0,71.794,239.767Z" transform="translate(-71.557 -239.767)"/></g><g transform="translate(9.572 7.576)"><g transform="translate(0)"><path class="a" d="M140.79,239.767a.237.237,0,0,0-.237.237v.105a.237.237,0,1,0,.474,0V240A.237.237,0,0,0,140.79,239.767Z" transform="translate(-140.553 -239.767)"/></g></g><g transform="translate(12.354 7.045)"><path class="a" d="M231.184,222.967a.237.237,0,0,0-.309.131.984.984,0,0,1-1.822,0,.237.237,0,0,0-.44.177,1.458,1.458,0,0,0,2.7,0A.237.237,0,0,0,231.184,222.967Z" transform="translate(-228.596 -222.95)"/></g><g transform="translate(11.977 5.266)"><path class="a" d="M216.885,166.656a.237.237,0,0,0-.237.237v.146a.237.237,0,1,0,.474,0v-.146A.237.237,0,0,0,216.885,166.656Z" transform="translate(-216.648 -166.656)"/></g><g transform="translate(14.993 5.266)"><path class="a" d="M312.357,166.656a.237.237,0,0,0-.237.237v.146a.237.237,0,1,0,.474,0v-.146A.237.237,0,0,0,312.357,166.656Z" transform="translate(-312.12 -166.656)"/></g><g transform="translate(5.298)"><g transform="translate(0)"><path class="a" d="M19.993,10.8a.237.237,0,1,0-.293.372,2.528,2.528,0,1,1-.8-.424.237.237,0,0,0,.144-.451,3.015,3.015,0,0,0-2.712.45,2.669,2.669,0,0,0-1.057-.215H15.09V9.986a3.255,3.255,0,0,0,1.858-2.555h.476a.942.942,0,0,0,.941-.941V6.157a.942.942,0,0,0-.522-.842V2.491A1.63,1.63,0,0,0,16.214.863H15.8A1.623,1.623,0,0,0,14.369,0H12.4a2.788,2.788,0,0,0-1.5.436.237.237,0,0,0,.255.4A2.315,2.315,0,0,1,12.4.474h1.971a1.145,1.145,0,0,1,1.025.642l.043.088a.237.237,0,0,0,.213.133h.565a1.155,1.155,0,0,1,1.154,1.154V5.217h-.4V4.092a2.918,2.918,0,0,0-.959-2.16.364.364,0,0,0-.6.207,2.2,2.2,0,0,1-2.171,1.82H10.325a.237.237,0,1,0,0,.474h.146v.784h-.4V2.8a2.3,2.3,0,0,1,.451-1.376.237.237,0,0,0-.382-.281A2.774,2.774,0,0,0,9.6,2.8V5.315a.942.942,0,0,0-.522.842V6.49s0,.006,0,.01H9.04a.212.212,0,0,1-.13-.045l-.77-.6a.4.4,0,0,0-.617.155l-.162.364a.212.212,0,0,1-.194.126H6.778V5.372a.356.356,0,0,1,.355-.355h.649a.237.237,0,0,0,.237-.237V4.564A.166.166,0,0,1,8.185,4.4h.75a.237.237,0,0,0,0-.474h-.75a.641.641,0,0,0-.64.618H7.134a.83.83,0,0,0-.829.829V7.541H6.043a.746.746,0,0,0-.745.746v.24a.746.746,0,0,0,.745.746H6.33a2.413,2.413,0,0,0,1.335,1.822v.284h-.07a2.012,2.012,0,0,0-2,1.782l-.227,1.958a.315.315,0,0,0,.313.351H8.527a.237.237,0,0,0,0-.474H7.014V13.677a.237.237,0,1,0-.474,0V15H5.86l.206-1.781a1.538,1.538,0,0,1,1.529-1.362h.085a1.054,1.054,0,0,0,2.079,0h.086a2.686,2.686,0,0,0-.355,1.06l-.314,2.71a.346.346,0,0,0,.343.385h7.605A3.014,3.014,0,0,0,19.993,10.8ZM9.553,6.157a.467.467,0,0,1,.467-.467h.689a.237.237,0,0,0,.237-.237V4.433h2.293a2.673,2.673,0,0,0,2.6-2.013A2.444,2.444,0,0,1,16.5,4.092V5.454a.237.237,0,0,0,.237.237h.689a.467.467,0,0,1,.467.467V6.49a.467.467,0,0,1-.467.467h-.693a.237.237,0,0,0-.237.225,2.778,2.778,0,0,1-1.73,2.428l-.009,0a2.788,2.788,0,0,1-2.07,0l-.012,0A2.773,2.773,0,0,1,10.95,7.182a.237.237,0,0,0-.237-.225H10.02a.467.467,0,0,1-.467-.467Zm5.062,4v1a.894.894,0,1,1-1.788,0v-1a3.272,3.272,0,0,0,1.788,0ZM9.3,11.679a.58.58,0,1,1-1.16,0v-.413a2.423,2.423,0,0,0,1.16,0Zm.544-.3h-.07v-.285a2.417,2.417,0,0,0,1.221-1.362.237.237,0,1,0-.446-.159,1.946,1.946,0,0,1-1.1,1.149h0a1.948,1.948,0,0,1-1.448,0l-.008,0a1.939,1.939,0,0,1-1.206-1.7A.237.237,0,0,0,6.544,8.8h-.5a.272.272,0,0,1-.271-.272v-.24a.272.272,0,0,1,.271-.272h.5a.237.237,0,0,0,.237-.237v-.8h.389a.687.687,0,0,0,.626-.406l.126-.282.7.544a.689.689,0,0,0,.421.145h.173a.941.941,0,0,0,.806.457H10.5a3.247,3.247,0,0,0,1.858,2.555v.542h-.188a2.69,2.69,0,0,0-1.991.879A2.025,2.025,0,0,0,9.843,11.379Zm1.428,4.154V13.617a.237.237,0,0,0-.474,0v1.916H9.663l.3-2.566A2.22,2.22,0,0,1,12.166,11h.188v.156a1.368,1.368,0,1,0,2.736,0V11h.188a2.21,2.21,0,0,1,.655.1,3.01,3.01,0,0,0,.332,4.433H11.272Z" transform="translate(-5.298 0)"/></g></g><g transform="translate(16.106 11.143)"><path class="a" d="M351.03,353.939h-.976v-.976a.339.339,0,0,0-.339-.339h-.737a.339.339,0,0,0-.339.339v.976h-.976a.339.339,0,0,0-.339.339v.737a.339.339,0,0,0,.339.339h.976v.976a.339.339,0,0,0,.339.339h.737a.339.339,0,0,0,.339-.339v-.976h.976a.339.339,0,0,0,.339-.339v-.737A.339.339,0,0,0,351.03,353.939Zm-.135.941h-.976a.339.339,0,0,0-.339.339v.976h-.467v-.976a.339.339,0,0,0-.339-.339H347.8v-.467h.976a.339.339,0,0,0,.339-.339V353.1h.467v.976a.339.339,0,0,0,.339.339h.976Z" transform="translate(-347.325 -352.625)"/></g></g></svg>