<svg xmlns="http://www.w3.org/2000/svg" width="39" height="39" viewBox="0 0 39 39"><defs><style>.a{fill:#edf5f8;}.b{fill:#7ea1af;}</style></defs><g transform="translate(-79 -136)"><circle class="a" cx="19.5" cy="19.5" r="19.5" transform="translate(79 136)"/><g transform="translate(85.744 144.243)"><g transform="translate(20.283 8.283)"><path class="b" d="M395.8,228.9a7.558,7.558,0,0,0-2.658-.455.387.387,0,0,0,0,.775,6.688,6.688,0,0,1,2.312.373.387.387,0,0,0,.346-.693Z" transform="translate(-392.751 -228.449)"/></g><path class="b" d="M25.259,82.318l-1.6-.457a.162.162,0,0,1-.117-.155v-.534a2.91,2.91,0,0,0,.37-.3,2.849,2.849,0,0,0,.872-2.061V78.07l.155-.309a2.471,2.471,0,0,0,.259-1.1v-2a.387.387,0,0,0-.387-.387H21.084a2.461,2.461,0,0,0-2.458,2.458v.023a2.054,2.054,0,0,0,.216.914l.2.4V78.7a3.022,3.022,0,0,0,1.242,2.444v.56c0,.086,0,.122-.32.213l-.781.223-2.258-.821a.387.387,0,0,0-.106-.3l-.722-.758V78.994c.076-.063.151-.127.224-.2a4.546,4.546,0,0,0,1.432-3.3V74.477a4.477,4.477,0,0,0,.414-1.883V68.453a.387.387,0,0,0-.387-.387h-5.8a3.7,3.7,0,0,0-3.7,3.7v.828A4.477,4.477,0,0,0,8.7,74.477v.874a4.733,4.733,0,0,0,1.657,3.612v1.3l-.722.758a.387.387,0,0,0-.106.3l-2.383.867a2.031,2.031,0,0,0-.479.251l-.374-.187a2.958,2.958,0,0,0,1.484-1.2.387.387,0,0,0,0-.346,6.881,6.881,0,0,1-.34-2.4c-.009-.274-.018-.532-.034-.763a3.369,3.369,0,0,0-3.285-3.259A3.369,3.369,0,0,0,.829,77.537c-.016.23-.025.489-.034.763a6.881,6.881,0,0,1-.34,2.4.387.387,0,0,0,0,.346,2.958,2.958,0,0,0,1.485,1.2L.9,82.77A1.621,1.621,0,0,0,0,84.228v2.862a.387.387,0,1,0,.775,0V84.228a.85.85,0,0,1,.473-.765l1.294-.647.45.428a1.629,1.629,0,0,0,2.245,0l.45-.428.422.211A2.04,2.04,0,0,0,5.8,84.108V87.09a.387.387,0,0,0,.775,0V84.108a1.273,1.273,0,0,1,.835-1.193L9.921,82l1.046,1.569a.8.8,0,0,0,.588.353q.04,0,.08,0a.8.8,0,0,0,.566-.235l.638-.638V87.09a.387.387,0,1,0,.775,0V83.055l.638.638a.8.8,0,0,0,.566.235q.04,0,.08,0a.8.8,0,0,0,.588-.353L16.531,82l2.513.914a1.273,1.273,0,0,1,.835,1.193V87.09a.387.387,0,0,0,.775,0V84.109a2.048,2.048,0,0,0-.573-1.417l.1-.027a2.123,2.123,0,0,0,.36-.13l.989.989V87.09a.387.387,0,0,0,.775,0V83.523l.982-.982a.922.922,0,0,0,.165.065l1.6.457a.859.859,0,0,1,.62.822v3.2a.387.387,0,0,0,.775,0v-3.2A1.637,1.637,0,0,0,25.259,82.318ZM2.485,81.634a2.784,2.784,0,0,1-1.243-.8,4.269,4.269,0,0,0,.221-.927A2.888,2.888,0,0,0,2.485,81.17ZM4.7,82.682a.855.855,0,0,1-1.178,0l-.36-.342a.8.8,0,0,0,.094-.378v-.413a2.88,2.88,0,0,0,1.71,0v.413a.8.8,0,0,0,.094.378ZM4.115,80.9a2.1,2.1,0,0,1-2.1-2.1.385.385,0,0,0-.451-.382l0-.1c.009-.266.017-.518.032-.734a2.876,2.876,0,0,1,.783-1.806,2.407,2.407,0,0,1,3.459,0,2.876,2.876,0,0,1,.783,1.806c.015.216.024.467.032.734l0,.069A3.48,3.48,0,0,0,4.749,77a4.861,4.861,0,0,0-1.473-.233.387.387,0,0,0-.268.118l-.7.725a.387.387,0,0,0,.558.538l.582-.6a3.133,3.133,0,0,1,2.738,1.592A2.092,2.092,0,0,1,4.115,80.9Zm1.63.731v-.462a2.865,2.865,0,0,0,1.023-1.263,4.264,4.264,0,0,0,.221.925A2.8,2.8,0,0,1,5.744,81.635Zm3.727-6.284v-.961a.387.387,0,0,0-.039-.168,3.715,3.715,0,0,1-.376-1.628v-.828a2.929,2.929,0,0,1,2.926-2.926h5.411v3.754a3.715,3.715,0,0,1-.376,1.628.387.387,0,0,0-.039.168v1.1a3.718,3.718,0,0,1-1.187,2.74,3.852,3.852,0,0,1-.3.252l-.007,0a3.724,3.724,0,0,1-2.513.75A3.836,3.836,0,0,1,9.472,75.352Zm2.181,7.794a.024.024,0,0,1-.022.008.025.025,0,0,1-.02-.012l-1.2-1.807.388-.407,1.827,1.249Zm1.573-1.495-2.1-1.434v-.723a4.361,4.361,0,0,0,1.8.519q.153.01.3.01a4.487,4.487,0,0,0,2.094-.513v.708Zm1.614,1.491a.025.025,0,0,1-.02.012.024.024,0,0,1-.022-.008l-.969-.969,1.827-1.249.388.407Zm7.073-.327-.879-.879a1.063,1.063,0,0,0,.024-.23v-.163a2.716,2.716,0,0,0,.767.136h.089a2.877,2.877,0,0,0,.854-.129v.156a.926.926,0,0,0,.028.226Zm1.461-2.5a2.082,2.082,0,0,1-1.525.591,2.168,2.168,0,0,1-2.033-2.2v-.724a.387.387,0,0,0-.041-.173l-.239-.479a1.276,1.276,0,0,1-.134-.568v-.023a1.685,1.685,0,0,1,1.683-1.683h3.34v1.609a1.692,1.692,0,0,1-.178.753l-.2.391a.387.387,0,0,0-.041.173v.828A2.081,2.081,0,0,1,23.373,80.312Z" transform="translate(0 -68.066)"/><g transform="translate(24.01 16.151)"><path class="b" d="M465.31,380.814a.387.387,0,0,0-.387.387v2.485a.387.387,0,0,0,.775,0V381.2A.387.387,0,0,0,465.31,380.814Z" transform="translate(-464.923 -380.814)"/></g><g transform="translate(1.657 16.663)"><path class="b" d="M32.464,390.728a.387.387,0,0,0-.387.387v1.973a.387.387,0,0,0,.775,0v-1.973A.387.387,0,0,0,32.464,390.728Z" transform="translate(-32.077 -390.728)"/></g><g transform="translate(9.939 3.519)"><g transform="translate(0 0)"><path class="b" d="M198.919,137.353c-1.465-1.465-4.53-1.185-5.78-1a.8.8,0,0,0-.679.792v.892a.387.387,0,1,0,.775,0v-.892a.026.026,0,0,1,.02-.026,12.236,12.236,0,0,1,2.516-.123,4,4,0,0,1,2.6.9.387.387,0,0,0,.548-.548Z" transform="translate(-192.46 -136.203)"/></g></g><g transform="translate(8.283 16.98)"><g transform="translate(0 0)"><path class="b" d="M160.771,396.853a.387.387,0,0,0-.387.387V398.9a.387.387,0,0,0,.775,0V397.24A.387.387,0,0,0,160.771,396.853Z" transform="translate(-160.384 -396.853)"/></g></g><g transform="translate(17.394 16.98)"><g transform="translate(0 0)"><path class="b" d="M337.193,396.853a.387.387,0,0,0-.387.387V398.9a.387.387,0,0,0,.775,0V397.24A.387.387,0,0,0,337.193,396.853Z" transform="translate(-336.806 -396.853)"/></g></g></g></g></svg>