<svg xmlns="http://www.w3.org/2000/svg" width="39" height="39" viewBox="0 0 39 39"><defs><style>.a{fill:#edf5f8;}.b{fill:#7ea1af;}</style></defs><g transform="translate(-259 -136)"><circle class="a" cx="19.5" cy="19.5" r="19.5" transform="translate(259 136)"/><g transform="translate(186.553 142.698)"><g transform="translate(83.447)"><path class="b" d="M100.826,18.112a.36.36,0,0,0-.386.327v3.079a.2.2,0,0,1-.213.181H98.151V15.251a.391.391,0,0,0-.772,0V21.7H93.2l1.212-1.131a.53.53,0,0,0,.167-.471l0-.01L93.423,14.3l.311-.4a.957.957,0,0,0,.553.2.7.7,0,0,0,.605-.317h0l1.217-2.069,2.773.911A2.339,2.339,0,0,1,100.44,14.7v2.215a.391.391,0,0,0,.772,0V14.7a3.023,3.023,0,0,0-2.038-2.669l-.007,0-4.616-1.516V9.591A3.007,3.007,0,0,0,95.92,7.573a1.842,1.842,0,0,0,.982-.34,1.311,1.311,0,0,0,.569-1.053,1.272,1.272,0,0,0-.4-.908V4.058C97.073,1.821,94.926,0,92.288,0S87.5,1.821,87.5,4.058V5.3a1.21,1.21,0,0,0-.4.876,1.311,1.311,0,0,0,.569,1.053,1.841,1.841,0,0,0,.981.339A2.993,2.993,0,0,0,90.1,9.639v.87l-4.611,1.516-.007,0A3.023,3.023,0,0,0,83.447,14.7v6.822a.921.921,0,0,0,.985.836h3.678a.332.332,0,1,0,0-.655H87.28V15.251a.391.391,0,0,0-.772,0V21.7H84.432a.2.2,0,0,1-.213-.181V14.7a2.339,2.339,0,0,1,1.557-2.062l2.771-.911,1.218,2.07a.7.7,0,0,0,.605.317.956.956,0,0,0,.553-.2l.311.4-1.154,5.784,0,.01a.53.53,0,0,0,.167.471L91.457,21.7H89.913a.332.332,0,1,0,0,.655h10.314a.921.921,0,0,0,.985-.836V18.44A.361.361,0,0,0,100.826,18.112Zm-5.44-6.626-1.135,1.929-1.365-.822,1.4-1.468ZM93.1,13.527l-.294.376h-.963l-.294-.376.776-.467Zm-2.229-2.913V10a4.54,4.54,0,0,0,1.46.235,4.186,4.186,0,0,0,1.444-.255v.636l-1.451,1.519ZM96.7,6.18a.693.693,0,0,1-.3.557.979.979,0,0,1-.446.174V5.449A.791.791,0,0,1,96.7,6.18Zm-8.075.731a.79.79,0,0,1-.746-.731.834.834,0,0,1,.746-.714ZM88.644,4.8a2.2,2.2,0,0,0-.369.071v-.81c0-1.877,1.8-3.4,4.013-3.4S96.3,2.182,96.3,4.058v.788a1.991,1.991,0,0,0-.348-.057c0-.316,0-.255-1.215-1.366a.779.779,0,0,0-.877-.091,8.475,8.475,0,0,1-4.5,1.027A.684.684,0,0,0,88.644,4.8Zm.751,2.37V5.018a9.394,9.394,0,0,0,4.825-1.1c.559.509.862.776.959.878V7.168a2.94,2.94,0,0,1-5.785,0Zm1.01,6.247L89.27,11.486l1.1-.36,1.4,1.468Zm.443,6.743,1.118-5.6h.724l1.118,5.6-1.48,1.381Z" transform="translate(-83.447)"/></g></g></g></svg>