<svg xmlns="http://www.w3.org/2000/svg" width="88.69" height="84.884" viewBox="0 0 88.69 84.884"><defs><style>.a{fill:rgba(0,80,131,0.29);}</style></defs><path class="a" d="M-7.373-204.823q-10.175,1.917-14.3,14.746a40.318,40.318,0,0,0-2.064,12.534,9.046,9.046,0,0,0,.074,1.253q.074.516.221,2.286H-7.373v32.146H-38.782V-171.5q0-21.824,8.7-33.621t22.709-13.566Zm49.694,0q-8.11,1.327-12.313,9.143a37.4,37.4,0,0,0-4.2,17.99q0,.885.074,1.77A10.063,10.063,0,0,0,26.248-174H42.321v32.146H10.765V-171.5q0-17.548,7.373-31.335t24.184-15.852Z" transform="matrix(0.995, -0.105, 0.105, 0.995, 61.428, 221.91)"/></svg>